<svg xmlns="http://www.w3.org/2000/svg" width="21" height="21" fill="none" viewBox="0 0 21 21">
  <path fill="#1A7BFF" d="M2 20.7c-.55 0-1.021-.196-1.413-.588A1.925 1.925 0 0 1 0 18.7v-14c0-.55.196-1.021.587-1.413A1.928 1.928 0 0 1 2 2.7h8.925l-2 2H2v14h14v-6.95l2-2v8.95c0 .55-.196 1.02-.587 1.412A1.927 1.927 0 0 1 16 20.7H2ZM13.175 3.275l1.425 1.4-6.6 6.6V12.7h1.4l6.625-6.625 1.425 1.4-7.2 7.225H6v-4.25l7.175-7.175Zm4.275 4.2-4.275-4.2 2.5-2.5c.4-.4.88-.6 1.438-.6.558 0 1.029.2 1.412.6l1.4 1.425c.383.383.575.85.575 1.4 0 .55-.192 1.016-.575 1.4L17.45 7.475Z"/>
</svg>
