<svg xmlns="http://www.w3.org/2000/svg" width="20" height="20" fill="none" viewBox="0 0 20 20">
  <mask id="a" width="20" height="20" x="0" y="0" maskUnits="userSpaceOnUse" style="mask-type:alpha">
    <path fill="#D9D9D9" d="M0 0h20v20H0z"/>
  </mask>
  <g mask="url(#a)">
    <path fill="#1A7BFF" d="M3.333 17.5c-.458 0-.85-.163-1.176-.489a1.606 1.606 0 0 1-.49-1.177V6.667c0-.458.163-.85.49-1.177.326-.326.718-.49 1.176-.49h3.334V3.334c0-.459.163-.851.49-1.178a1.603 1.603 0 0 1 1.176-.489h3.334c.458 0 .85.163 1.177.49.326.326.49.718.49 1.177V5h3.333c.458 0 .85.164 1.177.49.326.326.49.719.49 1.177v9.167c0 .458-.164.85-.49 1.177-.327.326-.719.49-1.177.49H3.333Zm0-1.666h13.334V6.667H3.333v9.167ZM8.333 5h3.334V3.334H8.333V5Z"/>
  </g>
</svg>
