<svg xmlns="http://www.w3.org/2000/svg" width="20" height="20" fill="none" viewBox="0 0 20 20">
  <mask id="a" width="20" height="20" x="0" y="0" maskUnits="userSpaceOnUse" style="mask-type:alpha">
    <path fill="#D9D9D9" d="M0 0h20v20H0z"/>
  </mask>
  <g mask="url(#a)">
    <path fill="#000" fill-opacity=".87" d="M9.167 14.167h1.666v-5H9.167v5ZM10 7.5c.236 0 .434-.08.594-.24.16-.16.24-.357.24-.593a.809.809 0 0 0-.24-.594.809.809 0 0 0-.594-.24.806.806 0 0 0-.593.24.807.807 0 0 0-.24.594c0 .236.08.434.24.593.16.16.357.24.593.24Zm0 10.834a8.11 8.11 0 0 1-3.25-.657 8.41 8.41 0 0 1-2.646-1.78 8.41 8.41 0 0 1-1.78-2.647A8.11 8.11 0 0 1 1.666 10a8.11 8.11 0 0 1 .656-3.25 8.41 8.41 0 0 1 1.781-2.646A8.421 8.421 0 0 1 6.75 2.323 8.119 8.119 0 0 1 10 1.667c1.153 0 2.236.219 3.25.656a8.421 8.421 0 0 1 2.646 1.781 8.41 8.41 0 0 1 1.78 2.646 8.11 8.11 0 0 1 .657 3.25 8.11 8.11 0 0 1-.656 3.25 8.41 8.41 0 0 1-1.781 2.646 8.41 8.41 0 0 1-2.646 1.781 8.11 8.11 0 0 1-3.25.657Zm0-1.667c1.847 0 3.42-.65 4.72-1.948 1.297-1.298 1.947-2.871 1.947-4.719 0-1.847-.65-3.42-1.948-4.719C13.42 3.983 11.847 3.334 10 3.334c-1.847 0-3.42.649-4.718 1.947-1.3 1.3-1.949 2.872-1.949 4.72 0 1.847.65 3.42 1.949 4.719 1.298 1.298 2.87 1.947 4.718 1.947Z"/>
  </g>
</svg>
