<svg xmlns="http://www.w3.org/2000/svg" width="18" height="18" fill="none" viewBox="0 0 18 18">
  <path fill="#1A7BFF" stroke="#1A7BFF" stroke-width=".2" d="M16.329 2.154a1.226 1.226 0 0 1 .39 1.202L14.076 14.9a1.218 1.218 0 0 1-.819.888 1.098 1.098 0 0 1-.384.061m3.456-13.696-4.26 13.39c.223.196.508.305.804.306m3.456-13.696-.001-.001a1.233 1.233 0 0 0-1.247-.207L2.1 7.044l14.228-4.89ZM12.873 15.85l.001-.1v.1h-.001Zm-7.348-1.787a1.225 1.225 0 0 0 .758 1.133c.149.06.307.091.466.092a1.21 1.21 0 0 0 .866-.36l1.762-1.755 2.693 2.371-6.445-1.481m-.1 0h.1m-.1 0h.1m-.1 0v-4.038m.1 4.038v-4.12m-.1.082.08.016.02-.098m-.1.082-3.217-.638a1.225 1.225 0 0 1-.98-1.095m4.197 1.733v-.082h.1m0 0-4.297-1.65m0 0 .1-.01m-.1.01 1 .996a1.125 1.125 0 0 1-.9-1.006m-.1.01v-.001l.1-.009m-.1.01a1.211 1.211 0 0 1 .773-1.25v.001l.037.093a1.11 1.11 0 0 0-.71 1.146m10.237-3.575L6.031 8.774l-3.125-.62 8.76-3.446Zm-3.29 7.588L6.85 13.822v-2.87l1.526 1.344Zm6.902-8.557-2.456 10.7-5.573-4.904 8.029-5.796Z"/>
</svg>
