<svg xmlns="http://www.w3.org/2000/svg" width="18" height="18" fill="none" viewBox="0 0 18 18">
  <path fill="#000" fill-opacity=".38" d="M16.95 18c-2.15 0-4.246-.48-6.287-1.438a19.045 19.045 0 0 1-5.425-3.8 19.045 19.045 0 0 1-3.8-5.425C.479 5.296 0 3.2 0 1.05 0 .75.1.5.3.3.5.1.75 0 1.05 0H5.1a.96.96 0 0 1 .625.225A.88.88 0 0 1 6.05.8l.65 3.5c.033.233.03.446-.012.637a1.027 1.027 0 0 1-.288.513L3.975 7.9a16.4 16.4 0 0 0 2.638 3.375A18.627 18.627 0 0 0 10.1 14l2.35-2.35a1.4 1.4 0 0 1 .588-.338c.241-.075.479-.095.712-.062l3.45.7c.233.05.425.162.575.337.15.175.225.38.225.613v4.05c0 .3-.1.55-.3.75-.2.2-.45.3-.75.3ZM3.025 6l1.65-1.65L4.25 2H2.025c.083.683.2 1.358.35 2.025.15.667.367 1.325.65 1.975Zm8.95 8.95c.65.283 1.313.508 1.988.675.675.167 1.354.275 2.037.325v-2.2l-2.35-.475-1.675 1.675Z"/>
</svg>
