<svg xmlns="http://www.w3.org/2000/svg" width="18" height="18" fill="none" viewBox="0 0 18 18">
  <mask id="a" width="18" height="18" x="0" y="0" maskUnits="userSpaceOnUse" style="mask-type:alpha">
    <path fill="#D9D9D9" d="M0 0h18v18H0z"/>
  </mask>
  <g mask="url(#a)">
    <path fill="#1A7BFF" d="M9 10.5c.412 0 .766-.147 1.06-.441.293-.293.44-.646.44-1.059a1.45 1.45 0 0 0-.44-1.06A1.446 1.446 0 0 0 9 7.5c-.412 0-.765.147-1.059.44A1.445 1.445 0 0 0 7.5 9c0 .412.147.765.441 1.059.294.294.647.441 1.059.441Zm-3 3h6v-.431a1.495 1.495 0 0 0-.919-1.387 5.674 5.674 0 0 0-1.002-.32A5.05 5.05 0 0 0 9 11.25a5.05 5.05 0 0 0-1.079.113 5.675 5.675 0 0 0-1.002.318A1.495 1.495 0 0 0 6 13.07v.431Zm7.5 3h-9c-.412 0-.765-.147-1.059-.44A1.445 1.445 0 0 1 3 15V3c0-.413.147-.766.441-1.06.294-.293.647-.44 1.059-.44h6L15 6v9c0 .412-.147.766-.44 1.06a1.45 1.45 0 0 1-1.06.44Zm0-1.5V6.637L9.863 3H4.5v12h9Z"/>
  </g>
</svg>
