<svg xmlns="http://www.w3.org/2000/svg" width="18" height="18" fill="none" viewBox="0 0 18 18">
  <mask id="a" width="18" height="18" x="0" y="0" maskUnits="userSpaceOnUse" style="mask-type:alpha">
    <path fill="#D9D9D9" d="M0 0h18v18H0z"/>
  </mask>
  <g mask="url(#a)">
    <path fill="#1A7BFF" d="M3 15c-.413 0-.765-.147-1.059-.44A1.445 1.445 0 0 1 1.5 13.5v-9c0-.412.147-.765.441-1.059A1.443 1.443 0 0 1 3 3h12c.412 0 .766.147 1.06.441.293.294.44.647.44 1.059v9c0 .412-.147.766-.44 1.06-.294.293-.647.44-1.06.44H3Zm6-5.25L3 6v7.5h12V6L9 9.75Zm0-1.5 6-3.75H3l6 3.75ZM3 6V4.5v9V6Z"/>
  </g>
</svg>
