<svg width="160" height="160" viewBox="0 0 160 160" fill="none" xmlns="http://www.w3.org/2000/svg">
<path d="M7.61905 0H0V7.61905H7.61905V0Z" fill="black" fill-opacity="0.87"/>
<path d="M15.2381 0H7.61905V7.61905H15.2381V0Z" fill="black" fill-opacity="0.87"/>
<path d="M22.8571 0H15.2381V7.61905H22.8571V0Z" fill="black" fill-opacity="0.87"/>
<path d="M30.4762 0H22.8571V7.61905H30.4762V0Z" fill="black" fill-opacity="0.87"/>
<path d="M38.0952 0H30.4762V7.61905H38.0952V0Z" fill="black" fill-opacity="0.87"/>
<path d="M45.7143 0H38.0952V7.61905H45.7143V0Z" fill="black" fill-opacity="0.87"/>
<path d="M53.3333 0H45.7143V7.61905H53.3333V0Z" fill="black" fill-opacity="0.87"/>
<path d="M68.5714 0H60.9524V7.61905H68.5714V0Z" fill="black" fill-opacity="0.87"/>
<path d="M83.8095 0H76.1905V7.61905H83.8095V0Z" fill="black" fill-opacity="0.87"/>
<path d="M99.0476 0H91.4286V7.61905H99.0476V0Z" fill="black" fill-opacity="0.87"/>
<path d="M114.286 0H106.667V7.61905H114.286V0Z" fill="black" fill-opacity="0.87"/>
<path d="M121.905 0H114.286V7.61905H121.905V0Z" fill="black" fill-opacity="0.87"/>
<path d="M129.524 0H121.905V7.61905H129.524V0Z" fill="black" fill-opacity="0.87"/>
<path d="M137.143 0H129.524V7.61905H137.143V0Z" fill="black" fill-opacity="0.87"/>
<path d="M144.762 0H137.143V7.61905H144.762V0Z" fill="black" fill-opacity="0.87"/>
<path d="M152.381 0H144.762V7.61905H152.381V0Z" fill="black" fill-opacity="0.87"/>
<path d="M160 0H152.381V7.61905H160V0Z" fill="black" fill-opacity="0.87"/>
<path d="M7.61905 7.61905H0V15.2381H7.61905V7.61905Z" fill="black" fill-opacity="0.87"/>
<path d="M53.3333 7.61905H45.7143V15.2381H53.3333V7.61905Z" fill="black" fill-opacity="0.87"/>
<path d="M83.8095 7.61905H76.1905V15.2381H83.8095V7.61905Z" fill="black" fill-opacity="0.87"/>
<path d="M91.4286 7.61905H83.8095V15.2381H91.4286V7.61905Z" fill="black" fill-opacity="0.87"/>
<path d="M114.286 7.61905H106.667V15.2381H114.286V7.61905Z" fill="black" fill-opacity="0.87"/>
<path d="M160 7.61905H152.381V15.2381H160V7.61905Z" fill="black" fill-opacity="0.87"/>
<path d="M7.61905 15.2381H0V22.8571H7.61905V15.2381Z" fill="black" fill-opacity="0.87"/>
<path d="M22.8571 15.2381H15.2381V22.8571H22.8571V15.2381Z" fill="black" fill-opacity="0.87"/>
<path d="M30.4762 15.2381H22.8571V22.8571H30.4762V15.2381Z" fill="black" fill-opacity="0.87"/>
<path d="M38.0952 15.2381H30.4762V22.8571H38.0952V15.2381Z" fill="black" fill-opacity="0.87"/>
<path d="M53.3333 15.2381H45.7143V22.8571H53.3333V15.2381Z" fill="black" fill-opacity="0.87"/>
<path d="M76.1905 15.2381H68.5714V22.8571H76.1905L76.1905 15.2381Z" fill="black" fill-opacity="0.87"/>
<path d="M83.8095 15.2381H76.1905L76.1905 22.8571H83.8095V15.2381Z" fill="black" fill-opacity="0.87"/>
<path d="M99.0476 15.2381H91.4286V22.8571H99.0476V15.2381Z" fill="black" fill-opacity="0.87"/>
<path d="M114.286 15.2381H106.667V22.8571H114.286V15.2381Z" fill="black" fill-opacity="0.87"/>
<path d="M129.524 15.2381H121.905V22.8571H129.524V15.2381Z" fill="black" fill-opacity="0.87"/>
<path d="M137.143 15.2381H129.524V22.8571H137.143V15.2381Z" fill="black" fill-opacity="0.87"/>
<path d="M144.762 15.2381H137.143V22.8571H144.762V15.2381Z" fill="black" fill-opacity="0.87"/>
<path d="M160 15.2381H152.381V22.8571H160V15.2381Z" fill="black" fill-opacity="0.87"/>
<path d="M7.61905 22.8571H0V30.4762H7.61905V22.8571Z" fill="black" fill-opacity="0.87"/>
<path d="M22.8571 22.8571H15.2381V30.4762H22.8571V22.8571Z" fill="black" fill-opacity="0.87"/>
<path d="M30.4762 22.8571H22.8571V30.4762H30.4762V22.8571Z" fill="black" fill-opacity="0.87"/>
<path d="M38.0952 22.8571H30.4762V30.4762H38.0952V22.8571Z" fill="black" fill-opacity="0.87"/>
<path d="M53.3333 22.8571H45.7143V30.4762H53.3333V22.8571Z" fill="black" fill-opacity="0.87"/>
<path d="M68.5714 22.8571H60.9524V30.4762H68.5714L68.5714 22.8571Z" fill="black" fill-opacity="0.87"/>
<path d="M76.1905 22.8571H68.5714L68.5714 30.4762H76.1905V22.8571Z" fill="black" fill-opacity="0.87"/>
<path d="M91.4286 22.8571H83.8095L83.8095 30.4762H91.4286V22.8571Z" fill="black" fill-opacity="0.87"/>
<path d="M99.0476 22.8571H91.4286V30.4762H99.0476V22.8571Z" fill="black" fill-opacity="0.87"/>
<path d="M114.286 22.8571H106.667V30.4762H114.286V22.8571Z" fill="black" fill-opacity="0.87"/>
<path d="M129.524 22.8571H121.905V30.4762H129.524V22.8571Z" fill="black" fill-opacity="0.87"/>
<path d="M137.143 22.8571H129.524V30.4762H137.143V22.8571Z" fill="black" fill-opacity="0.87"/>
<path d="M144.762 22.8571H137.143V30.4762H144.762V22.8571Z" fill="black" fill-opacity="0.87"/>
<path d="M160 22.8571H152.381V30.4762H160V22.8571Z" fill="black" fill-opacity="0.87"/>
<path d="M7.61905 30.4762H0V38.0952H7.61905V30.4762Z" fill="black" fill-opacity="0.87"/>
<path d="M22.8571 30.4762H15.2381V38.0952H22.8571V30.4762Z" fill="black" fill-opacity="0.87"/>
<path d="M30.4762 30.4762H22.8571V38.0952H30.4762V30.4762Z" fill="black" fill-opacity="0.87"/>
<path d="M38.0952 30.4762H30.4762V38.0952H38.0952V30.4762Z" fill="black" fill-opacity="0.87"/>
<path d="M53.3333 30.4762H45.7143V38.0952H53.3333V30.4762Z" fill="black" fill-opacity="0.87"/>
<path d="M76.1905 30.4762H68.5714L68.5714 38.0952H76.1905V30.4762Z" fill="black" fill-opacity="0.87"/>
<path d="M91.4286 30.4762H83.8095V38.0952H91.4286V30.4762Z" fill="black" fill-opacity="0.87"/>
<path d="M99.0476 30.4762H91.4286V38.0952H99.0476V30.4762Z" fill="black" fill-opacity="0.87"/>
<path d="M114.286 30.4762H106.667V38.0952H114.286V30.4762Z" fill="black" fill-opacity="0.87"/>
<path d="M129.524 30.4762H121.905V38.0952H129.524V30.4762Z" fill="black" fill-opacity="0.87"/>
<path d="M137.143 30.4762H129.524V38.0952H137.143V30.4762Z" fill="black" fill-opacity="0.87"/>
<path d="M144.762 30.4762H137.143V38.0952H144.762V30.4762Z" fill="black" fill-opacity="0.87"/>
<path d="M160 30.4762H152.381V38.0952H160V30.4762Z" fill="black" fill-opacity="0.87"/>
<path d="M7.61905 38.0952H0V45.7143H7.61905V38.0952Z" fill="black" fill-opacity="0.87"/>
<path d="M53.3333 38.0952H45.7143V45.7143H53.3333V38.0952Z" fill="black" fill-opacity="0.87"/>
<path d="M68.5714 38.0952H60.9524V45.7143H68.5714L68.5714 38.0952Z" fill="black" fill-opacity="0.87"/>
<path d="M76.1905 38.0952H68.5714L68.5714 45.7143H76.1905V38.0952Z" fill="black" fill-opacity="0.87"/>
<path d="M83.8095 38.0952H76.1905V45.7143H83.8095L83.8095 38.0952Z" fill="black" fill-opacity="0.87"/>
<path d="M99.0476 38.0952H91.4286V45.7143H99.0476V38.0952Z" fill="black" fill-opacity="0.87"/>
<path d="M114.286 38.0952H106.667V45.7143H114.286V38.0952Z" fill="black" fill-opacity="0.87"/>
<path d="M160 38.0952H152.381V45.7143H160V38.0952Z" fill="black" fill-opacity="0.87"/>
<path d="M7.61905 45.7143H0V53.3333H7.61905V45.7143Z" fill="black" fill-opacity="0.87"/>
<path d="M15.2381 45.7143H7.61905V53.3333H15.2381V45.7143Z" fill="black" fill-opacity="0.87"/>
<path d="M22.8571 45.7143H15.2381V53.3333H22.8571V45.7143Z" fill="black" fill-opacity="0.87"/>
<path d="M30.4762 45.7143H22.8571V53.3333H30.4762V45.7143Z" fill="black" fill-opacity="0.87"/>
<path d="M38.0952 45.7143H30.4762V53.3333H38.0952V45.7143Z" fill="black" fill-opacity="0.87"/>
<path d="M45.7143 45.7143H38.0952V53.3333H45.7143V45.7143Z" fill="black" fill-opacity="0.87"/>
<path d="M53.3333 45.7143H45.7143V53.3333H53.3333V45.7143Z" fill="black" fill-opacity="0.87"/>
<path d="M68.5714 45.7143H60.9524V53.3333H68.5714V45.7143Z" fill="black" fill-opacity="0.87"/>
<path d="M83.8095 45.7143H76.1905L76.1905 53.3333H83.8095V45.7143Z" fill="black" fill-opacity="0.87"/>
<path d="M99.0476 45.7143H91.4286V53.3333H99.0476V45.7143Z" fill="black" fill-opacity="0.87"/>
<path d="M114.286 45.7143H106.667V53.3333H114.286V45.7143Z" fill="black" fill-opacity="0.87"/>
<path d="M121.905 45.7143H114.286V53.3333H121.905V45.7143Z" fill="black" fill-opacity="0.87"/>
<path d="M129.524 45.7143H121.905V53.3333H129.524V45.7143Z" fill="black" fill-opacity="0.87"/>
<path d="M137.143 45.7143H129.524V53.3333H137.143V45.7143Z" fill="black" fill-opacity="0.87"/>
<path d="M144.762 45.7143H137.143V53.3333H144.762V45.7143Z" fill="black" fill-opacity="0.87"/>
<path d="M152.381 45.7143H144.762V53.3333H152.381V45.7143Z" fill="black" fill-opacity="0.87"/>
<path d="M160 45.7143H152.381V53.3333H160V45.7143Z" fill="black" fill-opacity="0.87"/>
<path d="M99.0476 53.3333H91.4286V60.9524H99.0476V53.3333Z" fill="black" fill-opacity="0.87"/>
<path d="M45.7143 60.9524H38.0952V68.5714H45.7143V60.9524Z" fill="black" fill-opacity="0.87"/>
<path d="M53.3333 60.9524H45.7143V68.5714H53.3333V60.9524Z" fill="black" fill-opacity="0.87"/>
<path d="M68.5714 60.9524H60.9524V68.5714H68.5714V60.9524Z" fill="black" fill-opacity="0.87"/>
<path d="M76.1905 60.9524H68.5714V68.5714H76.1905V60.9524Z" fill="black" fill-opacity="0.87"/>
<path d="M99.0476 60.9524H91.4286V68.5714H99.0476V60.9524Z" fill="black" fill-opacity="0.87"/>
<path d="M106.667 60.9524L99.0476 60.9524V68.5714H106.667V60.9524Z" fill="black" fill-opacity="0.87"/>
<path d="M121.905 60.9524H114.286V68.5714H121.905V60.9524Z" fill="black" fill-opacity="0.87"/>
<path d="M137.143 60.9524H129.524V68.5714H137.143V60.9524Z" fill="black" fill-opacity="0.87"/>
<path d="M160 60.9524H152.381V68.5714H160V60.9524Z" fill="black" fill-opacity="0.87"/>
<path d="M22.8571 68.5714H15.2381V76.1905H22.8571V68.5714Z" fill="black" fill-opacity="0.87"/>
<path d="M45.7143 68.5714H38.0952V76.1905H45.7143V68.5714Z" fill="black" fill-opacity="0.87"/>
<path d="M68.5714 68.5714H60.9524V76.1905H68.5714V68.5714Z" fill="black" fill-opacity="0.87"/>
<path d="M99.0476 68.5714H91.4286V76.1905H99.0476V68.5714Z" fill="black" fill-opacity="0.87"/>
<path d="M114.286 68.5714H106.667V76.1905H114.286V68.5714Z" fill="black" fill-opacity="0.87"/>
<path d="M121.905 68.5714H114.286V76.1905H121.905V68.5714Z" fill="black" fill-opacity="0.87"/>
<path d="M137.143 68.5714H129.524V76.1905H137.143V68.5714Z" fill="black" fill-opacity="0.87"/>
<path d="M144.762 68.5714L137.143 68.5714V76.1905H144.762V68.5714Z" fill="black" fill-opacity="0.87"/>
<path d="M7.61905 76.1905H0V83.8095H7.61905V76.1905Z" fill="black" fill-opacity="0.87"/>
<path d="M15.2381 76.1905L7.61905 76.1905V83.8095H15.2381V76.1905Z" fill="black" fill-opacity="0.87"/>
<path d="M22.8571 76.1905H15.2381V83.8095H22.8571V76.1905Z" fill="black" fill-opacity="0.87"/>
<path d="M30.4762 76.1905L22.8571 76.1905V83.8095H30.4762V76.1905Z" fill="black" fill-opacity="0.87"/>
<path d="M38.0952 76.1905L30.4762 76.1905V83.8095H38.0952V76.1905Z" fill="black" fill-opacity="0.87"/>
<path d="M53.3333 76.1905L45.7143 76.1905V83.8095H53.3333V76.1905Z" fill="black" fill-opacity="0.87"/>
<path d="M60.9524 76.1905L53.3333 76.1905V83.8095H60.9524L60.9524 76.1905Z" fill="black" fill-opacity="0.87"/>
<path d="M83.8095 76.1905H76.1905V83.8095H83.8095V76.1905Z" fill="black" fill-opacity="0.87"/>
<path d="M99.0476 76.1905H91.4286V83.8095H99.0476V76.1905Z" fill="black" fill-opacity="0.87"/>
<path d="M114.286 76.1905H106.667V83.8095H114.286V76.1905Z" fill="black" fill-opacity="0.87"/>
<path d="M129.524 76.1905H121.905V83.8095H129.524V76.1905Z" fill="black" fill-opacity="0.87"/>
<path d="M137.143 76.1905H129.524V83.8095H137.143V76.1905Z" fill="black" fill-opacity="0.87"/>
<path d="M7.61905 83.8095H0V91.4286H7.61905V83.8095Z" fill="black" fill-opacity="0.87"/>
<path d="M38.0952 83.8095H30.4762V91.4286H38.0952V83.8095Z" fill="black" fill-opacity="0.87"/>
<path d="M68.5714 83.8095L60.9524 83.8095L60.9524 91.4286H68.5714V83.8095Z" fill="black" fill-opacity="0.87"/>
<path d="M76.1905 83.8095L68.5714 83.8095V91.4286H76.1905L76.1905 83.8095Z" fill="black" fill-opacity="0.87"/>
<path d="M83.8095 83.8095H76.1905L76.1905 91.4286H83.8095V83.8095Z" fill="black" fill-opacity="0.87"/>
<path d="M99.0476 83.8095H91.4286V91.4286H99.0476V83.8095Z" fill="black" fill-opacity="0.87"/>
<path d="M114.286 83.8095H106.667V91.4286H114.286V83.8095Z" fill="black" fill-opacity="0.87"/>
<path d="M144.762 83.8095L137.143 83.8095V91.4286H144.762V83.8095Z" fill="black" fill-opacity="0.87"/>
<path d="M152.381 83.8095H144.762V91.4286H152.381V83.8095Z" fill="black" fill-opacity="0.87"/>
<path d="M15.2381 91.4286H7.61905V99.0476H15.2381V91.4286Z" fill="black" fill-opacity="0.87"/>
<path d="M30.4762 91.4286H22.8571V99.0476H30.4762V91.4286Z" fill="black" fill-opacity="0.87"/>
<path d="M38.0952 91.4286H30.4762V99.0476H38.0952V91.4286Z" fill="black" fill-opacity="0.87"/>
<path d="M53.3333 91.4286H45.7143V99.0476H53.3333V91.4286Z" fill="black" fill-opacity="0.87"/>
<path d="M68.5714 91.4286H60.9524V99.0476H68.5714V91.4286Z" fill="black" fill-opacity="0.87"/>
<path d="M91.4286 91.4286H83.8095L83.8095 99.0476H91.4286V91.4286Z" fill="black" fill-opacity="0.87"/>
<path d="M114.286 91.4286H106.667V99.0476H114.286V91.4286Z" fill="black" fill-opacity="0.87"/>
<path d="M129.524 91.4286H121.905V99.0476H129.524V91.4286Z" fill="black" fill-opacity="0.87"/>
<path d="M152.381 91.4286H144.762V99.0476H152.381V91.4286Z" fill="black" fill-opacity="0.87"/>
<path d="M68.5714 99.0476H60.9524V106.667H68.5714V99.0476Z" fill="black" fill-opacity="0.87"/>
<path d="M76.1905 99.0476H68.5714V106.667H76.1905V99.0476Z" fill="black" fill-opacity="0.87"/>
<path d="M91.4286 99.0476H83.8095V106.667H91.4286V99.0476Z" fill="black" fill-opacity="0.87"/>
<path d="M106.667 99.0476H99.0476V106.667H106.667V99.0476Z" fill="black" fill-opacity="0.87"/>
<path d="M129.524 99.0476H121.905V106.667H129.524V99.0476Z" fill="black" fill-opacity="0.87"/>
<path d="M137.143 99.0476H129.524V106.667H137.143V99.0476Z" fill="black" fill-opacity="0.87"/>
<path d="M144.762 99.0476H137.143V106.667H144.762V99.0476Z" fill="black" fill-opacity="0.87"/>
<path d="M160 99.0476H152.381V106.667H160V99.0476Z" fill="black" fill-opacity="0.87"/>
<path d="M7.61905 106.667H0V114.286H7.61905V106.667Z" fill="black" fill-opacity="0.87"/>
<path d="M15.2381 106.667H7.61905V114.286H15.2381V106.667Z" fill="black" fill-opacity="0.87"/>
<path d="M22.8571 106.667H15.2381V114.286H22.8571V106.667Z" fill="black" fill-opacity="0.87"/>
<path d="M30.4762 106.667H22.8571V114.286H30.4762V106.667Z" fill="black" fill-opacity="0.87"/>
<path d="M38.0952 106.667H30.4762V114.286H38.0952V106.667Z" fill="black" fill-opacity="0.87"/>
<path d="M45.7143 106.667H38.0952V114.286H45.7143V106.667Z" fill="black" fill-opacity="0.87"/>
<path d="M53.3333 106.667H45.7143V114.286H53.3333V106.667Z" fill="black" fill-opacity="0.87"/>
<path d="M83.8095 106.667H76.1905L76.1905 114.286H83.8095L83.8095 106.667Z" fill="black" fill-opacity="0.87"/>
<path d="M91.4286 106.667H83.8095L83.8095 114.286H91.4286V106.667Z" fill="black" fill-opacity="0.87"/>
<path d="M99.0476 106.667H91.4286V114.286H99.0476V106.667Z" fill="black" fill-opacity="0.87"/>
<path d="M106.667 106.667H99.0476V114.286H106.667V106.667Z" fill="black" fill-opacity="0.87"/>
<path d="M114.286 106.667H106.667V114.286H114.286V106.667Z" fill="black" fill-opacity="0.87"/>
<path d="M121.905 106.667H114.286V114.286H121.905V106.667Z" fill="black" fill-opacity="0.87"/>
<path d="M129.524 106.667H121.905V114.286H129.524V106.667Z" fill="black" fill-opacity="0.87"/>
<path d="M137.143 106.667H129.524V114.286H137.143V106.667Z" fill="black" fill-opacity="0.87"/>
<path d="M144.762 106.667H137.143V114.286H144.762V106.667Z" fill="black" fill-opacity="0.87"/>
<path d="M7.61905 114.286H0V121.905H7.61905V114.286Z" fill="black" fill-opacity="0.87"/>
<path d="M53.3333 114.286H45.7143V121.905H53.3333V114.286Z" fill="black" fill-opacity="0.87"/>
<path d="M68.5714 114.286H60.9524V121.905H68.5714V114.286Z" fill="black" fill-opacity="0.87"/>
<path d="M76.1905 114.286H68.5714V121.905H76.1905L76.1905 114.286Z" fill="black" fill-opacity="0.87"/>
<path d="M106.667 114.286H99.0476V121.905H106.667V114.286Z" fill="black" fill-opacity="0.87"/>
<path d="M114.286 114.286H106.667V121.905H114.286V114.286Z" fill="black" fill-opacity="0.87"/>
<path d="M121.905 114.286H114.286V121.905H121.905V114.286Z" fill="black" fill-opacity="0.87"/>
<path d="M144.762 114.286H137.143V121.905H144.762V114.286Z" fill="black" fill-opacity="0.87"/>
<path d="M7.61905 121.905H0V129.524H7.61905V121.905Z" fill="black" fill-opacity="0.87"/>
<path d="M22.8571 121.905H15.2381V129.524H22.8571V121.905Z" fill="black" fill-opacity="0.87"/>
<path d="M30.4762 121.905H22.8571V129.524H30.4762V121.905Z" fill="black" fill-opacity="0.87"/>
<path d="M38.0952 121.905H30.4762V129.524H38.0952V121.905Z" fill="black" fill-opacity="0.87"/>
<path d="M53.3333 121.905H45.7143V129.524H53.3333V121.905Z" fill="black" fill-opacity="0.87"/>
<path d="M76.1905 121.905H68.5714L68.5714 129.524H76.1905V121.905Z" fill="black" fill-opacity="0.87"/>
<path d="M91.4286 121.905H83.8095V129.524H91.4286V121.905Z" fill="black" fill-opacity="0.87"/>
<path d="M114.286 121.905H106.667V129.524H114.286V121.905Z" fill="black" fill-opacity="0.87"/>
<path d="M121.905 121.905H114.286V129.524H121.905V121.905Z" fill="black" fill-opacity="0.87"/>
<path d="M137.143 121.905H129.524V129.524H137.143V121.905Z" fill="black" fill-opacity="0.87"/>
<path d="M144.762 121.905H137.143V129.524H144.762V121.905Z" fill="black" fill-opacity="0.87"/>
<path d="M152.381 121.905H144.762V129.524H152.381V121.905Z" fill="black" fill-opacity="0.87"/>
<path d="M160 121.905H152.381V129.524H160V121.905Z" fill="black" fill-opacity="0.87"/>
<path d="M7.61905 129.524H0V137.143H7.61905V129.524Z" fill="black" fill-opacity="0.87"/>
<path d="M22.8571 129.524H15.2381V137.143H22.8571V129.524Z" fill="black" fill-opacity="0.87"/>
<path d="M30.4762 129.524H22.8571V137.143H30.4762V129.524Z" fill="black" fill-opacity="0.87"/>
<path d="M38.0952 129.524H30.4762V137.143H38.0952V129.524Z" fill="black" fill-opacity="0.87"/>
<path d="M53.3333 129.524H45.7143V137.143H53.3333V129.524Z" fill="black" fill-opacity="0.87"/>
<path d="M76.1905 129.524H68.5714V137.143H76.1905V129.524Z" fill="black" fill-opacity="0.87"/>
<path d="M83.8095 129.524H76.1905V137.143H83.8095L83.8095 129.524Z" fill="black" fill-opacity="0.87"/>
<path d="M106.667 129.524H99.0476V137.143H106.667V129.524Z" fill="black" fill-opacity="0.87"/>
<path d="M114.286 129.524H106.667V137.143H114.286V129.524Z" fill="black" fill-opacity="0.87"/>
<path d="M137.143 129.524H129.524V137.143H137.143V129.524Z" fill="black" fill-opacity="0.87"/>
<path d="M144.762 129.524H137.143V137.143H144.762V129.524Z" fill="black" fill-opacity="0.87"/>
<path d="M160 129.524H152.381V137.143H160V129.524Z" fill="black" fill-opacity="0.87"/>
<path d="M7.61905 137.143H0V144.762H7.61905V137.143Z" fill="black" fill-opacity="0.87"/>
<path d="M22.8571 137.143H15.2381V144.762H22.8571V137.143Z" fill="black" fill-opacity="0.87"/>
<path d="M30.4762 137.143H22.8571V144.762H30.4762V137.143Z" fill="black" fill-opacity="0.87"/>
<path d="M38.0952 137.143H30.4762V144.762H38.0952V137.143Z" fill="black" fill-opacity="0.87"/>
<path d="M53.3333 137.143H45.7143V144.762H53.3333V137.143Z" fill="black" fill-opacity="0.87"/>
<path d="M76.1905 137.143H68.5714V144.762H76.1905V137.143Z" fill="black" fill-opacity="0.87"/>
<path d="M83.8095 137.143H76.1905V144.762H83.8095V137.143Z" fill="black" fill-opacity="0.87"/>
<path d="M114.286 137.143H106.667V144.762H114.286V137.143Z" fill="black" fill-opacity="0.87"/>
<path d="M137.143 137.143H129.524V144.762H137.143V137.143Z" fill="black" fill-opacity="0.87"/>
<path d="M144.762 137.143H137.143V144.762H144.762V137.143Z" fill="black" fill-opacity="0.87"/>
<path d="M7.61905 144.762H0V152.381H7.61905V144.762Z" fill="black" fill-opacity="0.87"/>
<path d="M53.3333 144.762H45.7143V152.381H53.3333V144.762Z" fill="black" fill-opacity="0.87"/>
<path d="M76.1905 144.762H68.5714V152.381H76.1905V144.762Z" fill="black" fill-opacity="0.87"/>
<path d="M91.4286 144.762H83.8095L83.8095 152.381H91.4286V144.762Z" fill="black" fill-opacity="0.87"/>
<path d="M114.286 144.762H106.667V152.381H114.286V144.762Z" fill="black" fill-opacity="0.87"/>
<path d="M121.905 144.762H114.286V152.381H121.905V144.762Z" fill="black" fill-opacity="0.87"/>
<path d="M129.524 144.762H121.905V152.381H129.524V144.762Z" fill="black" fill-opacity="0.87"/>
<path d="M137.143 144.762H129.524V152.381H137.143V144.762Z" fill="black" fill-opacity="0.87"/>
<path d="M160 144.762H152.381V152.381H160V144.762Z" fill="black" fill-opacity="0.87"/>
<path d="M7.61905 152.381H0V160H7.61905V152.381Z" fill="black" fill-opacity="0.87"/>
<path d="M15.2381 152.381H7.61905V160H15.2381V152.381Z" fill="black" fill-opacity="0.87"/>
<path d="M22.8571 152.381H15.2381V160H22.8571V152.381Z" fill="black" fill-opacity="0.87"/>
<path d="M30.4762 152.381H22.8571V160H30.4762V152.381Z" fill="black" fill-opacity="0.87"/>
<path d="M38.0952 152.381H30.4762V160H38.0952V152.381Z" fill="black" fill-opacity="0.87"/>
<path d="M45.7143 152.381H38.0952V160H45.7143V152.381Z" fill="black" fill-opacity="0.87"/>
<path d="M53.3333 152.381H45.7143V160H53.3333V152.381Z" fill="black" fill-opacity="0.87"/>
<path d="M76.1905 152.381H68.5714V160H76.1905V152.381Z" fill="black" fill-opacity="0.87"/>
<path d="M83.8095 152.381H76.1905V160H83.8095L83.8095 152.381Z" fill="black" fill-opacity="0.87"/>
<path d="M91.4286 152.381H83.8095L83.8095 160H91.4286V152.381Z" fill="black" fill-opacity="0.87"/>
<path d="M137.143 152.381H129.524V160H137.143V152.381Z" fill="black" fill-opacity="0.87"/>
<path d="M144.762 152.381H137.143V160H144.762V152.381Z" fill="black" fill-opacity="0.87"/>
</svg>
