<svg width="107" height="48" viewBox="0 0 107 48" fill="none" xmlns="http://www.w3.org/2000/svg">
<mask id="mask0_0_104" style="mask-type:alpha" maskUnits="userSpaceOnUse" x="38" y="9" width="31" height="30">
<rect x="38.3" y="9" width="30" height="30" fill="#D9D9D9"/>
</mask>
<g mask="url(#mask0_0_104)">
<path d="M52.55 29L55.8 25.75L59.05 29L60.8 27.25L57.55 24L60.8 20.75L59.05 19L55.8 22.25L52.55 19L50.8 20.75L54.05 24L50.8 27.25L52.55 29ZM42.05 24L47.4875 16.3125C47.7167 15.9792 48.0134 15.7187 48.3775 15.5312C48.7425 15.3437 49.1334 15.25 49.55 15.25H62.05C62.7375 15.25 63.3263 15.495 63.8163 15.985C64.3055 16.4742 64.55 17.0625 64.55 17.75V30.25C64.55 30.9375 64.3055 31.5263 63.8163 32.0163C63.3263 32.5054 62.7375 32.75 62.05 32.75H49.55C49.1334 32.75 48.7425 32.6562 48.3775 32.4688C48.0134 32.2812 47.7167 32.0208 47.4875 31.6875L42.05 24ZM45.1125 24L49.55 30.25H62.05V17.75H49.55L45.1125 24Z" fill="black" fill-opacity="0.6"/>
</g>
</svg>
