<svg width="22" height="22" viewBox="0 0 22 22" fill="none" xmlns="http://www.w3.org/2000/svg">
<path d="M1.1 1.22222V7.33333H3.3V2.44444H7.7V0H2.2C1.90826 0 1.62847 0.128769 1.42218 0.35798C1.21589 0.587192 1.1 0.898068 1.1 1.22222ZM20.9 7.33333V1.22222C20.9 0.898068 20.7841 0.587192 20.5778 0.35798C20.3715 0.128769 20.0917 0 19.8 0H14.3V2.44444H18.7V7.33333H20.9ZM18.7 19.5556H14.3V22H19.8C20.0917 22 20.3715 21.8712 20.5778 21.642C20.7841 21.4128 20.9 21.1019 20.9 20.7778V14.6667H18.7V19.5556ZM7.7 22V19.5556H3.3V14.6667H1.1V20.7778C1.1 21.1019 1.21589 21.4128 1.42218 21.642C1.62847 21.8712 1.90826 22 2.2 22H7.7ZM0 9.77778H22V12.2222H0V9.77778Z" fill="black" fill-opacity="0.87"/>
</svg>
