<svg width="32" height="32" viewBox="0 0 32 32" fill="none" xmlns="http://www.w3.org/2000/svg">
<path d="M15.9573 26.5791C22.6612 26.5791 28.0958 21.826 28.0958 15.9627C28.0958 10.0993 22.6612 5.3462 15.9573 5.3462C9.2534 5.3462 3.81881 10.0993 3.81881 15.9627C3.81881 21.826 9.2534 26.5791 15.9573 26.5791Z" fill="#1B1E36"/>
<path d="M16.0001 0C13.742 0 11.9109 7.16341 11.9109 16C11.9109 24.8366 13.742 32 16.0001 32C18.2582 32 20.0893 24.8366 20.0893 16C20.0893 7.16341 18.2582 0 16.0001 0ZM16.2824 31.097C16.0242 31.3983 15.766 31.1723 15.766 31.1723C14.726 30.1184 14.206 28.1605 14.206 28.1605C12.387 23.0406 12.82 12.0477 12.82 12.0477C13.6749 3.32043 15.2299 1.25879 15.7591 0.80109C15.8132 0.754377 15.8843 0.725831 15.96 0.720476C16.0358 0.715121 16.1112 0.733301 16.1732 0.771816C16.941 1.24767 17.585 3.23773 17.585 3.23773C19.4866 9.41183 19.3144 15.2094 19.3144 15.2094C19.4866 20.2541 18.3615 25.9011 18.3615 25.9011C17.4954 30.1928 16.2824 31.097 16.2824 31.097Z" fill="#6F7390"/>
<path d="M31.8682 8.03772C30.7439 6.324 22.7291 8.49996 13.9611 12.8972C5.19312 17.2945 -0.991706 22.2488 0.131758 23.9618C1.25522 25.6747 9.27093 23.4995 18.0389 19.1022C26.8069 14.7049 32.9917 9.7507 31.8682 8.03772ZM1.16903 23.7267C0.738592 23.6793 0.835827 23.3698 0.835827 23.3698C1.36384 22.0567 3.0441 20.6879 3.0441 20.6879C7.21847 16.7598 18.337 11.618 18.337 11.618C27.4167 7.92325 30.237 8.07914 30.9525 8.25142C31.0259 8.26935 31.0897 8.30943 31.1326 8.36456C31.1755 8.4197 31.1947 8.48633 31.1868 8.55265C31.1007 9.37233 29.4434 10.8507 29.4434 10.8507C24.2701 15.3676 18.4342 18.1226 18.4342 18.1226C13.5168 20.7646 7.35637 22.7199 7.35637 22.7199C2.66888 24.1973 1.16903 23.7267 1.16903 23.7267Z" fill="#6F7390"/>
<path d="M31.8284 24.0191C32.9613 22.3099 26.7921 17.333 18.055 12.9027C9.31784 8.47232 1.30402 6.26945 0.172023 7.98154C-0.95997 9.69364 5.20826 14.6676 13.9504 19.0979C22.6926 23.5283 30.6964 25.7313 31.8284 24.0191ZM0.922781 8.64197C0.755425 8.29492 1.10871 8.21134 1.10871 8.21134C2.67282 7.953 4.86986 8.5417 4.86986 8.5417C10.847 9.73214 21.505 15.5712 21.505 15.5712C29.711 20.5933 30.9695 22.8054 31.1581 23.4333C31.1773 23.4977 31.1698 23.566 31.1371 23.626C31.1043 23.6861 31.0483 23.7341 30.979 23.7616C30.1233 24.1043 27.8316 23.5937 27.8316 23.5937C20.768 21.9372 15.1189 18.9023 15.1189 18.9023C10.0432 16.5079 5.02417 12.8238 5.02417 12.8238C1.21046 10.0154 0.923952 8.64577 0.923952 8.64577L0.922781 8.64197Z" fill="#6F7390"/>
<path d="M15.9572 17.8449C17.1459 17.8449 18.1094 17.0022 18.1094 15.9626C18.1094 14.923 17.1459 14.0803 15.9572 14.0803C14.7686 14.0803 13.805 14.923 13.805 15.9626C13.805 17.0022 14.7686 17.8449 15.9572 17.8449Z" fill="#B7B9C8"/>
<path d="M24.7818 9.86344C25.4712 9.86344 26.0301 9.35779 26.0301 8.73404C26.0301 8.11029 25.4712 7.60464 24.7818 7.60464C24.0923 7.60464 23.5334 8.11029 23.5334 8.73404C23.5334 9.35779 24.0923 9.86344 24.7818 9.86344Z" fill="#B7B9C8"/>
<path d="M4.29222 13.7039C4.98165 13.7039 5.54054 13.1982 5.54054 12.5745C5.54054 11.9507 4.98165 11.4451 4.29222 11.4451C3.6028 11.4451 3.04391 11.9507 3.04391 12.5745C3.04391 13.1982 3.6028 13.7039 4.29222 13.7039Z" fill="#B7B9C8"/>
<path d="M13.4176 27.558C14.1071 27.558 14.666 27.0524 14.666 26.4286C14.666 25.8049 14.1071 25.2993 13.4176 25.2993C12.7282 25.2993 12.1693 25.8049 12.1693 26.4286C12.1693 27.0524 12.7282 27.558 13.4176 27.558Z" fill="#B7B9C8"/>
</svg>
