<svg width="22" height="18" viewBox="0 0 22 18" fill="none" xmlns="http://www.w3.org/2000/svg">
<path d="M12.2 18C11.0667 18 9.96233 17.7877 8.887 17.363C7.81233 16.9377 6.83333 16.2833 5.95 15.4L7.35 14C8.03333 14.65 8.8 15.146 9.65 15.488C10.5 15.8293 11.3667 16 12.25 16C14.1833 16 15.8333 15.3167 17.2 13.95C18.5667 12.5833 19.25 10.9333 19.25 9C19.25 7.06667 18.5667 5.41667 17.2 4.05C15.8333 2.68333 14.1833 2 12.25 2C10.3333 2 8.68733 2.67067 7.312 4.012C5.93733 5.354 5.25 7.08333 5.25 9.2L7.1 7.35L8.5 8.75L4.25 13L0 8.75L1.45 7.35L3.25 9.2C3.25 7.9 3.48333 6.68733 3.95 5.562C4.41667 4.43733 5.05833 3.46233 5.875 2.637C6.69167 1.81233 7.646 1.16667 8.738 0.7C9.82933 0.233333 11 0 12.25 0C13.4833 0 14.646 0.237333 15.738 0.712C16.8293 1.18733 17.7833 1.83333 18.6 2.65C19.4167 3.46667 20.0627 4.42067 20.538 5.512C21.0127 6.604 21.25 7.76667 21.25 9C21.25 10.2333 21.0127 11.396 20.538 12.488C20.0627 13.5793 19.4167 14.5333 18.6 15.35C17.7833 16.1667 16.825 16.8127 15.725 17.288C14.625 17.7627 13.45 18 12.2 18ZM15.05 13.2L11.25 9.4V4H13.25V8.6L16.45 11.8L15.05 13.2Z" fill="#1A7BFF"/>
</svg>
