<svg width="30" height="27" viewBox="0 0 30 27" fill="none" xmlns="http://www.w3.org/2000/svg">
<path d="M15.0981 0.125329C18.192 0.125329 21.1621 0.125329 24.256 0.125329C24.5035 0.125329 24.6273 0.250656 24.6273 0.375985C26.3598 4.26117 28.0924 8.02102 29.9487 11.7809C30.0725 11.9062 29.9487 12.0315 29.825 12.1569C27.7211 14.2874 25.6173 16.418 23.3897 18.5486C20.6671 21.1805 17.8207 23.9377 15.0981 26.5696C14.8506 26.695 14.8506 26.695 14.7269 26.5696C12.0042 23.9377 9.28163 21.3058 6.55902 18.5486C4.45518 16.418 2.22759 14.2874 0.123756 12.1569C4.76837e-07 12.0315 0 11.9062 0 11.7809C0.866286 9.77562 1.85633 7.89569 2.72261 5.89044C3.5889 4.01051 4.45518 2.25591 5.32147 0.375985C5.44522 0.125328 5.56898 0 5.94025 0C9.03412 0.125328 12.0042 4.74074e-07 15.0981 0.125329ZM15.2219 3.5092C12.9943 3.5092 10.6429 3.5092 8.41535 3.5092C8.29159 3.5092 8.29159 3.5092 8.16784 3.5092C8.04408 3.5092 8.04408 3.5092 8.04408 3.63453C8.04408 4.76248 8.04408 5.89044 7.92033 7.14372C7.92033 7.26905 7.92033 7.26905 8.04408 7.26905C8.41535 7.26905 8.78661 7.26905 9.15788 7.26905C10.3954 7.26905 11.633 7.26905 12.8705 7.26905C12.9943 7.26905 12.9943 7.26905 13.118 7.26905C13.2418 7.26905 13.2418 7.39438 13.2418 7.51971C13.2418 8.02102 13.2418 8.64767 13.2418 9.14898C13.2418 9.27431 13.2418 9.27431 13.118 9.39964C12.2518 9.52497 11.3855 9.52496 10.5192 9.65029C9.40539 9.77562 8.29159 10.0263 7.30155 10.4023C6.80653 10.5276 6.43527 10.7782 6.064 11.0289C5.69274 11.4049 5.69274 11.9062 6.064 12.1569C6.31151 12.4075 6.55902 12.5329 6.80653 12.6582C7.67282 13.0342 8.5391 13.1595 9.40539 13.4101C10.6429 13.6608 11.8805 13.7861 13.118 13.9115C13.3656 13.9115 13.3656 13.9115 13.3656 14.1621C13.3656 16.418 13.3656 18.7993 13.3656 21.0552C13.3656 21.3058 13.3656 21.3058 13.6131 21.3058C14.7269 21.3058 15.9644 21.3058 17.0782 21.3058C17.4495 21.3058 17.4495 21.3058 17.4495 20.9299C17.4495 19.0499 17.4495 17.2953 17.4495 15.4154C17.4495 14.9141 17.4495 14.4128 17.4495 13.9115C17.4495 13.6608 17.5732 13.6608 17.697 13.6608C18.9345 13.6608 20.0483 13.5355 21.2859 13.2848C22.2759 13.1595 23.1422 12.9088 24.0085 12.5328C24.256 12.4075 24.5035 12.1569 24.751 12.0315C24.9985 11.7809 24.9985 11.5302 24.751 11.2796C24.5035 11.1542 24.3798 10.9036 24.1322 10.7783C22.6472 9.90095 20.9146 9.52497 19.182 9.39964C18.687 9.39964 18.192 9.39964 17.697 9.27431C17.5732 9.27431 17.5732 9.27431 17.5732 9.02365C17.5732 8.52234 17.5732 7.8957 17.5732 7.39438C17.5732 7.26905 17.5732 7.14372 17.8207 7.14372C18.192 7.14372 18.5633 7.14372 18.9345 7.14372C20.1721 7.14372 21.2859 7.14372 22.5234 7.14372C22.7709 7.14372 22.7709 7.0184 22.7709 6.89307C22.7709 6.76774 22.7709 6.76774 22.7709 6.64241C22.7709 5.63978 22.7709 4.63715 22.7709 3.5092C22.7709 3.25854 22.7709 3.25854 22.5234 3.25854C19.8008 3.5092 17.4495 3.5092 15.2219 3.5092Z" fill="white"/>
<path d="M14.6026 13.0341C13.7363 13.0341 12.9938 13.0341 12.1275 12.9087C10.7662 12.7834 9.28115 12.6581 7.91984 12.1568C7.67233 12.0314 7.42482 11.9061 7.05356 11.7808C6.68229 11.5301 6.68229 11.2795 7.05356 11.1541C7.54858 10.9035 8.0436 10.7781 8.53862 10.6528C9.52866 10.4022 10.5187 10.2768 11.6325 10.1515C12.0038 10.1515 12.4988 10.0262 12.87 10.0262C12.9938 10.0262 13.1176 10.0262 13.1176 10.2768C13.1176 11.0288 13.1176 11.6555 13.1176 12.4074C13.1176 12.6581 13.2413 12.6581 13.3651 12.6581C14.3551 12.6581 15.3452 12.6581 16.2114 12.6581C16.459 12.6581 16.7065 12.6581 16.954 12.6581C17.2015 12.6581 17.2015 12.6581 17.2015 12.4074C17.2015 11.7808 17.2015 11.1541 17.2015 10.5275C17.2015 10.1515 17.2015 10.1515 17.5727 10.1515C19.1816 10.2768 20.7904 10.4022 22.3992 10.9035C22.6467 11.0288 23.018 11.1541 23.2655 11.2795C23.513 11.4048 23.513 11.6554 23.2655 11.7808C22.7705 12.1568 22.2754 12.2821 21.6567 12.4074C20.4191 12.6581 19.1816 12.9087 17.944 12.9087C16.954 12.9087 15.7164 13.0341 14.6026 13.0341Z" fill="white"/>
</svg>
