<svg width="23" height="23" viewBox="0 0 23 23" fill="none" xmlns="http://www.w3.org/2000/svg">
<path d="M13.3579 16.095C13.3128 16.0504 13.252 16.0254 13.1887 16.0254C13.1253 16.0254 13.0645 16.0504 13.0195 16.095L9.53961 19.5748C7.92847 21.186 5.20928 21.3567 3.43043 19.5748C1.64858 17.793 1.81928 15.0768 3.43043 13.4657L6.91027 9.98582C7.0031 9.89299 7.0031 9.74026 6.91027 9.64742L5.71838 8.45553C5.67335 8.41095 5.61254 8.38594 5.54918 8.38594C5.48581 8.38594 5.425 8.41095 5.37998 8.45553L1.90014 11.9354C-0.633379 14.4689 -0.633379 18.5686 1.90014 21.0991C4.43365 23.6297 8.53339 23.6327 11.0639 21.0991L14.5438 17.6193C14.6366 17.5265 14.6366 17.3737 14.5438 17.2809L13.3579 16.095ZM21.1021 1.90014C18.5686 -0.633379 14.4689 -0.633379 11.9384 1.90014L8.45553 5.37998C8.41095 5.425 8.38594 5.48581 8.38594 5.54918C8.38594 5.61254 8.41095 5.67335 8.45553 5.71838L9.64443 6.90727C9.73726 7.00011 9.88999 7.00011 9.98283 6.90727L13.4627 3.42743C15.0738 1.81628 17.793 1.64559 19.5719 3.42743C21.3537 5.20928 21.183 7.92547 19.5719 9.53662L16.092 13.0165C16.0474 13.0615 16.0224 13.1223 16.0224 13.1857C16.0224 13.249 16.0474 13.3098 16.092 13.3549L17.2839 14.5468C17.3767 14.6396 17.5295 14.6396 17.6223 14.5468L21.1021 11.0669C23.6327 8.53339 23.6327 4.43365 21.1021 1.90014ZM14.4389 7.31755C14.3939 7.27296 14.3331 7.24795 14.2697 7.24795C14.2064 7.24795 14.1456 7.27296 14.1005 7.31755L7.31755 14.0975C7.27296 14.1426 7.24795 14.2034 7.24795 14.2667C7.24795 14.3301 7.27296 14.3909 7.31755 14.4359L8.50345 15.6218C8.59628 15.7147 8.74901 15.7147 8.84185 15.6218L15.6218 8.84185C15.7147 8.74901 15.7147 8.59628 15.6218 8.50345L14.4389 7.31755Z" fill="#6495FF"/>
</svg>
