<svg width="16" height="25" viewBox="0 0 16 25" fill="none" xmlns="http://www.w3.org/2000/svg">
<path d="M7.99762 0L7.82293 0.555571V16.6769L7.99762 16.8401L15.9953 12.4167L7.99762 0Z" fill="#343434"/>
<path d="M7.99762 0L2.09436e-06 12.4167L7.99762 16.8401L7.99768 9.01533L7.99762 0Z" fill="#8C8C8C"/>
<path d="M7.99762 18.2571L7.89919 18.3693V24.1121L7.99762 24.3811L16.0001 13.8359L7.99762 18.2571Z" fill="#3C3C3B"/>
<path d="M7.99762 24.3811V18.2571L0 13.8358L7.99762 24.3811Z" fill="#8C8C8C"/>
<path d="M7.99762 16.8401L15.9953 12.4167L7.99768 9.01533L7.99762 16.8401Z" fill="#141414"/>
<path d="M2.09436e-06 12.4167L7.99762 16.8401L7.99768 9.01533L2.09436e-06 12.4167Z" fill="#393939"/>
</svg>
