<svg xmlns="http://www.w3.org/2000/svg" width="20" height="20" fill="none" viewBox="0 0 20 20">
  <mask id="a" width="20" height="20" x="0" y="0" maskUnits="userSpaceOnUse" style="mask-type:alpha">
    <path fill="#D9D9D9" d="M0 0h20v20H0z"/>
  </mask>
  <g mask="url(#a)">
    <path fill="#E74C3C" d="m10 17.5-1.208-1.083a94.21 94.21 0 0 1-3.48-3.271c-.916-.917-1.645-1.74-2.187-2.47-.542-.728-.92-1.398-1.135-2.01a5.598 5.598 0 0 1-.323-1.874c0-1.306.437-2.396 1.312-3.271S4.944 2.208 6.25 2.208c.722 0 1.41.153 2.062.459A4.94 4.94 0 0 1 10 3.959a4.941 4.941 0 0 1 1.688-1.292 4.807 4.807 0 0 1 2.062-.458c1.306 0 2.396.437 3.27 1.312.876.875 1.313 1.965 1.313 3.27a5.61 5.61 0 0 1-.322 1.876c-.216.61-.594 1.28-1.136 2.01-.542.73-1.27 1.552-2.188 2.469a94.222 94.222 0 0 1-3.479 3.27L10 17.5Z"/>
  </g>
</svg>
