<svg xmlns="http://www.w3.org/2000/svg" width="16" height="16" fill="none" viewBox="0 0 16 16">
  <mask id="a" width="16" height="16" x="0" y="0" maskUnits="userSpaceOnUse" style="mask-type:alpha">
    <path fill="#D9D9D9" d="M0 0h16v16H0z"/>
  </mask>
  <g mask="url(#a)">
    <path fill="#000" fill-opacity=".38" d="M8 10.666c.833 0 1.542-.291 2.125-.874A2.895 2.895 0 0 0 11 7.667c0-.834-.292-1.542-.875-2.126A2.895 2.895 0 0 0 8 4.666c-.833 0-1.542.292-2.125.875A2.895 2.895 0 0 0 5 7.666c0 .834.292 1.542.875 2.126A2.895 2.895 0 0 0 8 10.666Zm0-1.2c-.5 0-.925-.175-1.275-.525A1.734 1.734 0 0 1 6.2 7.666c0-.5.175-.925.525-1.275.35-.35.775-.524 1.275-.524.5 0 .925.174 1.275.524.35.35.525.776.525 1.276s-.175.924-.525 1.274c-.35.35-.775.525-1.275.525Zm0 3.2c-1.622 0-3.1-.452-4.433-1.358-1.334-.905-2.3-2.12-2.9-3.641.6-1.523 1.566-2.737 2.9-3.643A7.72 7.72 0 0 1 8 2.667c1.622 0 3.1.452 4.433 1.357 1.334.906 2.3 2.12 2.9 3.643-.6 1.522-1.566 2.736-2.9 3.64A7.717 7.717 0 0 1 8 12.668Zm0-1.333a6.36 6.36 0 0 0 3.459-.992 6.513 6.513 0 0 0 2.408-2.674 6.518 6.518 0 0 0-2.408-2.676A6.366 6.366 0 0 0 8 4c-1.256 0-2.408.33-3.459.991a6.518 6.518 0 0 0-2.408 2.676 6.514 6.514 0 0 0 2.408 2.674A6.363 6.363 0 0 0 8 11.333Z"/>
  </g>
</svg>
